<svg xmlns="http://www.w3.org/2000/svg" viewBox="0 0 512 512">
  <defs>
    <linearGradient id="bg" x1="0%" y1="0%" x2="100%" y2="100%">
      <stop offset="0%" style="stop-color:#5D4037"/>
      <stop offset="100%" style="stop-color:#3E2723"/>
    </linearGradient>
    <linearGradient id="gold" x1="0%" y1="0%" x2="100%" y2="100%">
      <stop offset="0%" style="stop-color:#D4AF37"/>
      <stop offset="100%" style="stop-color:#B8860B"/>
    </linearGradient>
  </defs>
  <rect width="512" height="512" rx="80" fill="url(#bg)"/>
  <g fill="url(#gold)">
    <ellipse cx="256" cy="200" rx="45" ry="90"/>
    <ellipse cx="256" cy="200" rx="40" ry="80" transform="rotate(-30 256 256)"/>
    <ellipse cx="256" cy="200" rx="40" ry="80" transform="rotate(30 256 256)"/>
    <ellipse cx="256" cy="200" rx="35" ry="70" transform="rotate(-60 256 256)"/>
    <ellipse cx="256" cy="200" rx="35" ry="70" transform="rotate(60 256 256)"/>
    <ellipse cx="256" cy="210" rx="30" ry="60" transform="rotate(-45 256 256)"/>
    <ellipse cx="256" cy="210" rx="30" ry="60" transform="rotate(45 256 256)"/>
  </g>
  <circle cx="256" cy="280" r="25" fill="#F5F1E6"/>
  <circle cx="256" cy="280" r="15" fill="url(#gold)"/>
  <path d="M180 380 Q256 420 332 380 Q256 450 180 380" fill="url(#gold)" opacity="0.6"/>
</svg>